# xmcd
#
# Track frame offsets:
#	150
#	14868
#	30634
#	45705
#	61528
#	74071
#	89833
#	105905
#	119205
#	134517
#	151269
#	167104
#	183462
#	203021
#	219402
#	237096
#
# Disc length: 3358 seconds
#
# Revision: 0
# Processed by: cddbd v1.5.2PL0 Copyright (c) Steve Scherf et al.
# Submitted via: EasyCDDAExtractor 12.0.1.1
#
DISCID=e90d1c10
DTITLE=Edson e Hudson - Essencial
DYEAR=2009
DGENRE=Sertanejo
TTITLE0=É amor demais
TTITLE1=Eu não sei dizer que eu não te amo (vivo)
TTITLE2=Por Deus (vivo)
TTITLE3=Fala (vivo)
TTITLE4=Pra não chorar
TTITLE5=Tá no meu coração
TTITLE6=Galera coração (vivo)
TTITLE7=Hoje eu posso chorar (vivo)
TTITLE8=Viva a vida! (vivo)
TTITLE9=Eu quero mais (vivo)
TTITLE10=Blusa vermelha (vivo)
TTITLE11=Esqueça que eu te amo
TTITLE12=Foi você quem trouxe
TTITLE13=Imprevisível (vivo)
TTITLE14=Não tem dia, não tem hora
TTITLE15=Hei, você aí
EXTD=
EXTT0=
EXTT1=
EXTT2=
EXTT3=
EXTT4=
EXTT5=
EXTT6=
EXTT7=
EXTT8=
EXTT9=
EXTT10=
EXTT11=
EXTT12=
EXTT13=
EXTT14=
EXTT15=
PLAYORDER=
